<?xml version="1.0" encoding="UTF-8" standalone="no"?>
<!-- Created with Inkscape (http://www.inkscape.org/) -->

<svg
   version="1.1"
   id="svg1"
   width="816"
   height="1056"
   viewBox="0 0 816 1056"
   sodipodi:docname="Blau-Silber.ps"
   xmlns:inkscape="http://www.inkscape.org/namespaces/inkscape"
   xmlns:sodipodi="http://sodipodi.sourceforge.net/DTD/sodipodi-0.dtd"
   xmlns="http://www.w3.org/2000/svg"
   xmlns:svg="http://www.w3.org/2000/svg">
  <defs
     id="defs1">
    <linearGradient
       x1="9.9864597"
       y1="434.72699"
       x2="591.42798"
       y2="434.72699"
       gradientUnits="userSpaceOnUse"
       gradientTransform="scale(10)"
       spreadMethod="pad"
       id="linearGradient8">
      <stop
         style="stop-opacity:1;stop-color:#5c6477"
         offset="0"
         id="stop1" />
      <stop
         style="stop-opacity:1;stop-color:#a5abb9"
         offset="0.109375"
         id="stop2" />
      <stop
         style="stop-opacity:1;stop-color:#ececf0"
         offset="0.257813"
         id="stop3" />
      <stop
         style="stop-opacity:1;stop-color:#bcc1cc"
         offset="0.460938"
         id="stop4" />
      <stop
         style="stop-opacity:1;stop-color:#99a1ab"
         offset="0.609375"
         id="stop5" />
      <stop
         style="stop-opacity:1;stop-color:#bcc2cc"
         offset="0.71875"
         id="stop6" />
      <stop
         style="stop-opacity:1;stop-color:#727886"
         offset="0.851563"
         id="stop7" />
      <stop
         style="stop-opacity:1;stop-color:#abb3bc"
         offset="1"
         id="stop8" />
    </linearGradient>
    <clipPath
       clipPathUnits="userSpaceOnUse"
       id="clipPath8">
      <path
         d="m 1932.41,6173.73 c -334.93,-34.43 -199.3,-91.59 -263.94,-366.18 -24.12,-102.49 -90.79,-81.72 -196.77,-125.57 -87.18,-36.08 -129.66,-74.9 -216.7,-95.8 -167.13,21.56 -193.61,453.84 -635.719,-132.64 -66.484,-88.2 -35.961,-146.26 21.922,-215.8 56.613,-68.01 87.656,-115.39 131.707,-159.85 L 616.953,4683.51 c -80.558,-54.1 -231.609,-24.85 -362.187,-103.13 -28.496,-129.14 -17.743,-435.5 8.453,-547.86 97.476,-47.23 241.582,-50.15 377.465,-63.95 49.308,-131.56 109.707,-245.75 159.48,-369 -120.637,-322.88 -360.375,-204.77 -14.441,-539.26 323.707,-312.99 244.337,-119.4 539.637,37.49 133.72,-74.07 252.94,-100.68 322.17,-142.03 158.41,-94.61 -79.01,-401.78 290,-385.8 L 1937,3580.53 c -1039.414,83.97 -998.047,1463.66 0.98,1540.92 z"
         id="path8" />
    </clipPath>
    <linearGradient
       x1="268.724"
       y1="494.52899"
       x2="514.92102"
       y2="495.03"
       gradientUnits="userSpaceOnUse"
       gradientTransform="scale(10)"
       spreadMethod="pad"
       id="linearGradient11">
      <stop
         style="stop-opacity:1;stop-color:#034a98"
         offset="0"
         id="stop10" />
      <stop
         style="stop-opacity:1;stop-color:#05a5dd"
         offset="1"
         id="stop11" />
    </linearGradient>
    <clipPath
       clipPathUnits="userSpaceOnUse"
       id="clipPath11">
      <path
         d="m 4771.86,3691.07 h -545.53 l -437.26,564.02 h -992.23 l 15.97,-564.02 h -531.65 l -3.76,2482.03 h 529.92 z m -200.98,399.31 c 4.51,-0.06 9.06,-0.11 13.64,-0.11 158.91,0 279.08,33.61 359.4,100.81 80.87,67.79 121.32,146.39 121.32,236.38 0,58.1 -17.1,107.08 -51.27,147.51 -33.6,41.02 -92.83,76.34 -177.7,105.95 -57.52,20.5 -189.68,55.81 -395.29,107.07 -264.85,65.51 -450.52,146.39 -557.03,242.08 -150.37,134.41 -225.55,298.45 -225.55,492.1 0,124.74 35.31,240.93 105.94,349.72 70.62,108.21 172.58,190.81 305.28,247.77 133.28,56.38 293.34,84.86 481.3,84.86 307.56,0 538.24,-67.21 693.72,-201.63 154.93,-135 236.38,-314.41 244.35,-539.38 l -493.81,-21.65 c -21.09,125.87 -66.64,216.44 -136.13,271.12 -69.5,55.24 -173.71,82.58 -312.69,82.58 -143.54,0 -256.31,-29.04 -337.19,-88.28 -52.4,-37.59 -78.6,-88.29 -78.6,-151.5 0,-58.1 24.49,-107.65 73.48,-148.66 62.07,-52.4 213.58,-107.07 453.94,-163.47 240.35,-56.95 418.06,-115.62 533.12,-175.99 115.05,-60.95 205.04,-143.53 270.54,-248.91 64.94,-105.37 97.4,-235.23 97.4,-389.59 0,-140.1 -38.73,-271.68 -116.77,-393.55 -78.03,-122.47 -187.96,-213.6 -330.35,-272.83 -71.03,-29.83 -150.85,-52.14 -239.39,-67.04 z m -1105.84,582.52 -702.32,921.16 25.03,-921.16 z M 2224.74,3589.13 h 348.77 v -103.27 h -120.73 v -366.22 h -107.31 v 366.22 h -120.73 z m 166.68,-1020.69 c -46.95,0 -86.51,10.17 -118.71,30.51 -32.2,20.34 -55.23,48.85 -69.08,85.52 l 92.55,53.66 c 18.78,-43.37 51.65,-65.06 98.6,-65.06 42.47,0 63.71,12.75 63.71,38.23 0,14.31 -6.93,25.04 -20.79,32.19 -14.31,8.49 -39.8,17.67 -76.46,27.5 -37.56,10.29 -69.3,25.05 -95.24,44.26 -28.62,23.25 -42.93,56.13 -42.93,98.6 0,43.37 15.43,78.02 46.28,103.96 31.31,25.93 68.41,38.9 111.34,38.9 38.45,0 72.43,-9.05 101.94,-27.16 29.52,-18.11 52.77,-44.39 69.76,-78.81 l -90.54,-52.99 c -16.99,36.23 -44.05,54.33 -81.16,54.33 -15.65,0 -27.94,-3.35 -36.89,-10.05 -8.95,-6.71 -13.41,-15.21 -13.41,-25.51 0,-11.16 5.36,-21.23 16.09,-30.17 11.62,-8.94 34.43,-18.33 68.42,-28.17 l 43.59,-14.09 c 11.17,-3.57 24.14,-9.6 38.9,-18.11 16.1,-8.04 28.16,-16.75 36.22,-26.15 21.46,-23.25 32.19,-52.32 32.19,-87.19 0,-44.26 -16.09,-79.6 -48.29,-105.98 -32.19,-25.48 -74.22,-38.22 -126.09,-38.22 z m 621.74,70.42 c -47.4,-46.95 -105.08,-70.42 -173.04,-70.42 -67.97,0 -125.65,23.47 -173.04,70.42 -47.4,46.96 -71.1,104.85 -71.1,173.72 0,68.86 23.7,126.76 71.1,173.71 47.39,46.95 105.07,70.42 173.04,70.42 67.96,0 125.64,-23.47 173.04,-70.42 47.39,-46.95 71.1,-104.85 71.1,-173.71 0,-68.87 -23.71,-126.76 -71.1,-173.72 z m -309.86,173.72 c 0,-41.14 12.96,-74.68 38.9,-100.6 25.94,-25.94 58.57,-38.91 97.92,-38.91 38.91,0 71.32,12.97 97.26,38.91 26.38,26.38 39.57,59.9 39.57,100.6 0,40.68 -13.19,74.21 -39.57,100.59 -25.94,25.95 -58.35,38.91 -97.26,38.91 -39.35,0 -71.98,-12.96 -97.92,-38.91 -25.94,-25.92 -38.9,-59.46 -38.9,-100.59 z m 548.63,234.74 v -366.2 h 167.68 v -103.3 h -274.99 v 469.5 z m 204.56,-317.91 v 317.91 h 107.32 V 2738.8 c 0,-43.83 24.59,-65.73 73.77,-65.73 49.2,0 73.79,21.9 73.79,65.73 v 308.52 h 107.31 v -317.91 c 0,-49.63 -16.99,-88.76 -50.97,-117.37 -34.44,-29.08 -77.81,-43.6 -130.13,-43.6 -52.31,0 -95.69,14.52 -130.12,43.6 -33.98,28.61 -50.97,67.74 -50.97,117.37 z m 405.78,317.91 h 348.77 V 2944.03 H 4090.31 V 2577.82 H 3983 v 366.21 h -120.73 z m 395.72,-469.5 v 469.5 h 107.31 v -469.5 z m 584.85,61.04 c -47.39,-46.95 -105.07,-70.42 -173.04,-70.42 -67.97,0 -125.65,23.47 -173.05,70.42 -47.39,46.96 -71.09,104.85 -71.09,173.72 0,68.86 23.7,126.76 71.09,173.71 47.4,46.95 105.08,70.42 173.05,70.42 67.97,0 125.65,-23.47 173.04,-70.42 47.39,-46.95 71.09,-104.85 71.09,-173.71 0,-68.87 -23.7,-126.76 -71.09,-173.72 z m -309.86,173.72 c 0,-41.14 12.96,-74.68 38.9,-100.6 25.94,-25.94 58.57,-38.91 97.92,-38.91 38.91,0 71.32,12.97 97.24,38.91 26.4,26.38 39.59,59.9 39.59,100.6 0,40.68 -13.19,74.21 -39.59,100.59 -25.92,25.95 -58.33,38.91 -97.24,38.91 -39.35,0 -71.98,-12.96 -97.92,-38.91 -25.94,-25.92 -38.9,-59.46 -38.9,-100.59 z m 702.88,-20.13 v 254.87 h 107.33 v -469.5 h -80.49 l -181.1,254.88 v -254.88 h -107.3 v 469.5 h 80.48 z m 345.43,-224.01 c -46.96,0 -86.52,10.17 -118.72,30.51 -32.19,20.34 -55.22,48.85 -69.07,85.52 l 92.55,53.66 c 18.77,-43.37 51.63,-65.06 98.59,-65.06 42.47,0 63.71,12.75 63.71,38.23 0,14.31 -6.92,25.04 -20.79,32.19 -14.31,8.49 -39.79,17.67 -76.45,27.5 -37.57,10.29 -69.32,25.05 -95.24,44.26 -28.63,23.25 -42.93,56.13 -42.93,98.6 0,43.37 15.42,78.02 46.28,103.96 31.3,25.93 68.41,38.9 111.32,38.9 38.46,0 72.45,-9.05 101.96,-27.16 29.52,-18.11 52.77,-44.39 69.76,-78.81 l -90.55,-52.99 c -16.99,36.23 -44.04,54.33 -81.17,54.33 -15.63,0 -27.92,-3.35 -36.88,-10.05 -8.94,-6.71 -13.41,-15.21 -13.41,-25.51 0,-11.16 5.36,-21.23 16.1,-30.17 11.62,-8.94 34.43,-18.33 68.4,-28.17 l 43.6,-14.09 c 11.19,-3.57 24.15,-9.6 38.91,-18.11 16.1,-8.04 28.17,-16.75 36.21,-26.15 21.47,-23.25 32.2,-52.32 32.2,-87.19 0,-44.26 -16.11,-79.6 -48.3,-105.98 -32.19,-25.48 -74.21,-38.22 -126.08,-38.22 z m -2853.52,737.65 v -83.16 h 187.8 v -103.29 h -295.12 v 469.49 h 291.77 v -103.27 h -184.45 v -77.81 h 167.68 v -101.96 z m 468.82,-195.84 c -70.21,0 -128.55,23.26 -175.05,69.75 -46.06,46.51 -69.09,104.63 -69.09,174.39 0,69.75 23.03,127.65 69.09,173.71 46.05,46.95 104.4,70.43 175.05,70.43 42.03,0 80.93,-9.73 116.7,-29.17 35.77,-19.46 63.94,-45.95 84.51,-79.48 l -92.56,-53.66 c -10.28,18.33 -24.93,32.53 -43.93,42.6 -19.01,10.04 -40.58,15.08 -64.72,15.08 -42.04,0 -75.34,-12.74 -99.93,-38.24 -24.6,-25.03 -36.89,-58.79 -36.89,-101.27 0,-42.48 12.29,-76.23 36.89,-101.28 24.59,-25.49 57.89,-38.22 99.93,-38.22 23.69,0 45.28,5.13 64.72,15.42 19.46,10.28 34.09,24.37 43.93,42.26 l 92.56,-53.66 c -20.12,-33.54 -48.06,-60.02 -83.84,-79.48 -35.77,-19.45 -74.89,-29.18 -117.37,-29.18 z m 506.38,299.14 v 179.74 h 107.31 v -469.49 h -107.31 v 186.45 H 3555.41 V 3119.64 H 3448.1 v 469.49 h 107.31 v -179.74 z m 449.37,-75.12 v 254.86 h 107.32 v -469.49 h -80.5 l -181.08,254.87 v -254.87 h -107.31 v 469.49 h 80.48 z m 187.8,-214.63 v 469.49 h 107.31 v -469.49 z m 411.81,-9.39 c -70.2,0 -128.55,23.26 -175.06,69.75 -46.05,46.51 -69.07,104.63 -69.07,174.39 0,69.75 23.02,127.65 69.07,173.71 46.06,46.95 104.41,70.43 175.06,70.43 42.03,0 80.92,-9.73 116.69,-29.17 35.79,-19.46 63.96,-45.95 84.52,-79.48 l -92.56,-53.66 c -10.29,18.33 -24.93,32.53 -43.92,42.6 -19.02,10.04 -40.59,15.08 -64.73,15.08 -42.03,0 -75.34,-12.74 -99.93,-38.24 -24.61,-25.03 -36.89,-58.79 -36.89,-101.27 0,-42.48 12.28,-76.23 36.89,-101.28 24.59,-25.49 57.9,-38.22 99.93,-38.22 23.7,0 45.27,5.13 64.73,15.42 19.44,10.28 34.08,24.37 43.92,42.26 l 92.56,-53.66 c -20.13,-33.54 -48.07,-60.02 -83.84,-79.48 -35.77,-19.45 -74.89,-29.18 -117.37,-29.18 z m 667.35,9.39 h -117.38 l -23.47,73.78 h -174.39 l -23.47,-73.78 h -117.37 l 159.62,469.49 h 136.83 z m -228.04,346.76 -55,-172.37 h 109.99 z m 375.59,122.73 v -366.2 h 167.68 v -103.29 h -274.99 v 469.49 z"
         clip-rule="evenodd"
         id="path11" />
    </clipPath>
    <clipPath
       clipPathUnits="userSpaceOnUse"
       id="clipPath13">
      <path
         d="m 4771.86,3691.07 h -545.53 l -437.26,564.02 h -992.23 l 15.97,-564.02 h -531.65 l -3.76,2482.03 h 529.92 z m -200.98,399.31 c 4.51,-0.06 9.06,-0.11 13.64,-0.11 158.91,0 279.08,33.61 359.4,100.81 80.87,67.79 121.32,146.39 121.32,236.38 0,58.1 -17.1,107.08 -51.27,147.51 -33.6,41.02 -92.83,76.34 -177.7,105.95 -57.52,20.5 -189.68,55.81 -395.29,107.07 -264.85,65.51 -450.52,146.39 -557.03,242.08 -150.37,134.41 -225.55,298.45 -225.55,492.1 0,124.74 35.31,240.93 105.94,349.72 70.62,108.21 172.58,190.81 305.28,247.77 133.28,56.38 293.34,84.86 481.3,84.86 307.56,0 538.24,-67.21 693.72,-201.63 154.93,-135 236.38,-314.41 244.35,-539.38 l -493.81,-21.65 c -21.09,125.87 -66.64,216.44 -136.13,271.12 -69.5,55.24 -173.71,82.58 -312.69,82.58 -143.54,0 -256.31,-29.04 -337.19,-88.28 -52.4,-37.59 -78.6,-88.29 -78.6,-151.5 0,-58.1 24.49,-107.65 73.48,-148.66 62.07,-52.4 213.58,-107.07 453.94,-163.47 240.35,-56.95 418.06,-115.62 533.12,-175.99 115.05,-60.95 205.04,-143.53 270.54,-248.91 64.94,-105.37 97.4,-235.23 97.4,-389.59 0,-140.1 -38.73,-271.68 -116.77,-393.55 -78.03,-122.47 -187.96,-213.6 -330.35,-272.83 -71.03,-29.83 -150.85,-52.14 -239.39,-67.04 z m -1105.84,582.52 -702.32,921.16 25.03,-921.16 z M 2224.74,3589.13 h 348.77 v -103.27 h -120.73 v -366.22 h -107.31 v 366.22 h -120.73 z m 166.68,-1020.69 c -46.95,0 -86.51,10.17 -118.71,30.51 -32.2,20.34 -55.23,48.85 -69.08,85.52 l 92.55,53.66 c 18.78,-43.37 51.65,-65.06 98.6,-65.06 42.47,0 63.71,12.75 63.71,38.23 0,14.31 -6.93,25.04 -20.79,32.19 -14.31,8.49 -39.8,17.67 -76.46,27.5 -37.56,10.29 -69.3,25.05 -95.24,44.26 -28.62,23.25 -42.93,56.13 -42.93,98.6 0,43.37 15.43,78.02 46.28,103.96 31.31,25.93 68.41,38.9 111.34,38.9 38.45,0 72.43,-9.05 101.94,-27.16 29.52,-18.11 52.77,-44.39 69.76,-78.81 l -90.54,-52.99 c -16.99,36.23 -44.05,54.33 -81.16,54.33 -15.65,0 -27.94,-3.35 -36.89,-10.05 -8.95,-6.71 -13.41,-15.21 -13.41,-25.51 0,-11.16 5.36,-21.23 16.09,-30.17 11.62,-8.94 34.43,-18.33 68.42,-28.17 l 43.59,-14.09 c 11.17,-3.57 24.14,-9.6 38.9,-18.11 16.1,-8.04 28.16,-16.75 36.22,-26.15 21.46,-23.25 32.19,-52.32 32.19,-87.19 0,-44.26 -16.09,-79.6 -48.29,-105.98 -32.19,-25.48 -74.22,-38.22 -126.09,-38.22 z m 621.74,70.42 c -47.4,-46.95 -105.08,-70.42 -173.04,-70.42 -67.97,0 -125.65,23.47 -173.04,70.42 -47.4,46.96 -71.1,104.85 -71.1,173.72 0,68.86 23.7,126.76 71.1,173.71 47.39,46.95 105.07,70.42 173.04,70.42 67.96,0 125.64,-23.47 173.04,-70.42 47.39,-46.95 71.1,-104.85 71.1,-173.71 0,-68.87 -23.71,-126.76 -71.1,-173.72 z m -309.86,173.72 c 0,-41.14 12.96,-74.68 38.9,-100.6 25.94,-25.94 58.57,-38.91 97.92,-38.91 38.91,0 71.32,12.97 97.26,38.91 26.38,26.38 39.57,59.9 39.57,100.6 0,40.68 -13.19,74.21 -39.57,100.59 -25.94,25.95 -58.35,38.91 -97.26,38.91 -39.35,0 -71.98,-12.96 -97.92,-38.91 -25.94,-25.92 -38.9,-59.46 -38.9,-100.59 z m 548.63,234.74 v -366.2 h 167.68 v -103.3 h -274.99 v 469.5 z m 204.56,-317.91 v 317.91 h 107.32 V 2738.8 c 0,-43.83 24.59,-65.73 73.77,-65.73 49.2,0 73.79,21.9 73.79,65.73 v 308.52 h 107.31 v -317.91 c 0,-49.63 -16.99,-88.76 -50.97,-117.37 -34.44,-29.08 -77.81,-43.6 -130.13,-43.6 -52.31,0 -95.69,14.52 -130.12,43.6 -33.98,28.61 -50.97,67.74 -50.97,117.37 z m 405.78,317.91 h 348.77 V 2944.03 H 4090.31 V 2577.82 H 3983 v 366.21 h -120.73 z m 395.72,-469.5 v 469.5 h 107.31 v -469.5 z m 584.85,61.04 c -47.39,-46.95 -105.07,-70.42 -173.04,-70.42 -67.97,0 -125.65,23.47 -173.05,70.42 -47.39,46.96 -71.09,104.85 -71.09,173.72 0,68.86 23.7,126.76 71.09,173.71 47.4,46.95 105.08,70.42 173.05,70.42 67.97,0 125.65,-23.47 173.04,-70.42 47.39,-46.95 71.09,-104.85 71.09,-173.71 0,-68.87 -23.7,-126.76 -71.09,-173.72 z m -309.86,173.72 c 0,-41.14 12.96,-74.68 38.9,-100.6 25.94,-25.94 58.57,-38.91 97.92,-38.91 38.91,0 71.32,12.97 97.24,38.91 26.4,26.38 39.59,59.9 39.59,100.6 0,40.68 -13.19,74.21 -39.59,100.59 -25.92,25.95 -58.33,38.91 -97.24,38.91 -39.35,0 -71.98,-12.96 -97.92,-38.91 -25.94,-25.92 -38.9,-59.46 -38.9,-100.59 z m 702.88,-20.13 v 254.87 h 107.33 v -469.5 h -80.49 l -181.1,254.88 v -254.88 h -107.3 v 469.5 h 80.48 z m 345.43,-224.01 c -46.96,0 -86.52,10.17 -118.72,30.51 -32.19,20.34 -55.22,48.85 -69.07,85.52 l 92.55,53.66 c 18.77,-43.37 51.63,-65.06 98.59,-65.06 42.47,0 63.71,12.75 63.71,38.23 0,14.31 -6.92,25.04 -20.79,32.19 -14.31,8.49 -39.79,17.67 -76.45,27.5 -37.57,10.29 -69.32,25.05 -95.24,44.26 -28.63,23.25 -42.93,56.13 -42.93,98.6 0,43.37 15.42,78.02 46.28,103.96 31.3,25.93 68.41,38.9 111.32,38.9 38.46,0 72.45,-9.05 101.96,-27.16 29.52,-18.11 52.77,-44.39 69.76,-78.81 l -90.55,-52.99 c -16.99,36.23 -44.04,54.33 -81.17,54.33 -15.63,0 -27.92,-3.35 -36.88,-10.05 -8.94,-6.71 -13.41,-15.21 -13.41,-25.51 0,-11.16 5.36,-21.23 16.1,-30.17 11.62,-8.94 34.43,-18.33 68.4,-28.17 l 43.6,-14.09 c 11.19,-3.57 24.15,-9.6 38.91,-18.11 16.1,-8.04 28.17,-16.75 36.21,-26.15 21.47,-23.25 32.2,-52.32 32.2,-87.19 0,-44.26 -16.11,-79.6 -48.3,-105.98 -32.19,-25.48 -74.21,-38.22 -126.08,-38.22 z m -2853.52,737.65 v -83.16 h 187.8 v -103.29 h -295.12 v 469.49 h 291.77 v -103.27 h -184.45 v -77.81 h 167.68 v -101.96 z m 468.82,-195.84 c -70.21,0 -128.55,23.26 -175.05,69.75 -46.06,46.51 -69.09,104.63 -69.09,174.39 0,69.75 23.03,127.65 69.09,173.71 46.05,46.95 104.4,70.43 175.05,70.43 42.03,0 80.93,-9.73 116.7,-29.17 35.77,-19.46 63.94,-45.95 84.51,-79.48 l -92.56,-53.66 c -10.28,18.33 -24.93,32.53 -43.93,42.6 -19.01,10.04 -40.58,15.08 -64.72,15.08 -42.04,0 -75.34,-12.74 -99.93,-38.24 -24.6,-25.03 -36.89,-58.79 -36.89,-101.27 0,-42.48 12.29,-76.23 36.89,-101.28 24.59,-25.49 57.89,-38.22 99.93,-38.22 23.69,0 45.28,5.13 64.72,15.42 19.46,10.28 34.09,24.37 43.93,42.26 l 92.56,-53.66 c -20.12,-33.54 -48.06,-60.02 -83.84,-79.48 -35.77,-19.45 -74.89,-29.18 -117.37,-29.18 z m 506.38,299.14 v 179.74 h 107.31 v -469.49 h -107.31 v 186.45 H 3555.41 V 3119.64 H 3448.1 v 469.49 h 107.31 v -179.74 z m 449.37,-75.12 v 254.86 h 107.32 v -469.49 h -80.5 l -181.08,254.87 v -254.87 h -107.31 v 469.49 h 80.48 z m 187.8,-214.63 v 469.49 h 107.31 v -469.49 z m 411.81,-9.39 c -70.2,0 -128.55,23.26 -175.06,69.75 -46.05,46.51 -69.07,104.63 -69.07,174.39 0,69.75 23.02,127.65 69.07,173.71 46.06,46.95 104.41,70.43 175.06,70.43 42.03,0 80.92,-9.73 116.69,-29.17 35.79,-19.46 63.96,-45.95 84.52,-79.48 l -92.56,-53.66 c -10.29,18.33 -24.93,32.53 -43.92,42.6 -19.02,10.04 -40.59,15.08 -64.73,15.08 -42.03,0 -75.34,-12.74 -99.93,-38.24 -24.61,-25.03 -36.89,-58.79 -36.89,-101.27 0,-42.48 12.28,-76.23 36.89,-101.28 24.59,-25.49 57.9,-38.22 99.93,-38.22 23.7,0 45.27,5.13 64.73,15.42 19.44,10.28 34.08,24.37 43.92,42.26 l 92.56,-53.66 c -20.13,-33.54 -48.07,-60.02 -83.84,-79.48 -35.77,-19.45 -74.89,-29.18 -117.37,-29.18 z m 667.35,9.39 h -117.38 l -23.47,73.78 h -174.39 l -23.47,-73.78 h -117.37 l 159.62,469.49 h 136.83 z m -228.04,346.76 -55,-172.37 h 109.99 z m 375.59,122.73 v -366.2 h 167.68 v -103.29 h -274.99 v 469.49 z"
         clip-rule="evenodd"
         id="path13" />
    </clipPath>
    <linearGradient
       x1="268.724"
       y1="494.52899"
       x2="514.92102"
       y2="495.03"
       gradientUnits="userSpaceOnUse"
       gradientTransform="scale(10)"
       spreadMethod="pad"
       id="linearGradient15">
      <stop
         style="stop-opacity:1;stop-color:#034a98"
         offset="0"
         id="stop14" />
      <stop
         style="stop-opacity:1;stop-color:#05a5dd"
         offset="1"
         id="stop15" />
    </linearGradient>
    <clipPath
       clipPathUnits="userSpaceOnUse"
       id="clipPath15">
      <path
         d="m 4771.86,3691.07 h -545.53 l -437.26,564.02 h -992.23 l 15.97,-564.02 h -531.65 l -3.76,2482.03 h 529.92 z m -200.98,399.31 c 4.51,-0.06 9.06,-0.11 13.64,-0.11 158.91,0 279.08,33.61 359.4,100.81 80.87,67.79 121.32,146.39 121.32,236.38 0,58.1 -17.1,107.08 -51.27,147.51 -33.6,41.02 -92.83,76.34 -177.7,105.95 -57.52,20.5 -189.68,55.81 -395.29,107.07 -264.85,65.51 -450.52,146.39 -557.03,242.08 -150.37,134.41 -225.55,298.45 -225.55,492.1 0,124.74 35.31,240.93 105.94,349.72 70.62,108.21 172.58,190.81 305.28,247.77 133.28,56.38 293.34,84.86 481.3,84.86 307.56,0 538.24,-67.21 693.72,-201.63 154.93,-135 236.38,-314.41 244.35,-539.38 l -493.81,-21.65 c -21.09,125.87 -66.64,216.44 -136.13,271.12 -69.5,55.24 -173.71,82.58 -312.69,82.58 -143.54,0 -256.31,-29.04 -337.19,-88.28 -52.4,-37.59 -78.6,-88.29 -78.6,-151.5 0,-58.1 24.49,-107.65 73.48,-148.66 62.07,-52.4 213.58,-107.07 453.94,-163.47 240.35,-56.95 418.06,-115.62 533.12,-175.99 115.05,-60.95 205.04,-143.53 270.54,-248.91 64.94,-105.37 97.4,-235.23 97.4,-389.59 0,-140.1 -38.73,-271.68 -116.77,-393.55 -78.03,-122.47 -187.96,-213.6 -330.35,-272.83 -71.03,-29.83 -150.85,-52.14 -239.39,-67.04 z m -1105.84,582.52 -702.32,921.16 25.03,-921.16 z M 2224.74,3589.13 h 348.77 v -103.27 h -120.73 v -366.22 h -107.31 v 366.22 h -120.73 z m 166.68,-1020.69 c -46.95,0 -86.51,10.17 -118.71,30.51 -32.2,20.34 -55.23,48.85 -69.08,85.52 l 92.55,53.66 c 18.78,-43.37 51.65,-65.06 98.6,-65.06 42.47,0 63.71,12.75 63.71,38.23 0,14.31 -6.93,25.04 -20.79,32.19 -14.31,8.49 -39.8,17.67 -76.46,27.5 -37.56,10.29 -69.3,25.05 -95.24,44.26 -28.62,23.25 -42.93,56.13 -42.93,98.6 0,43.37 15.43,78.02 46.28,103.96 31.31,25.93 68.41,38.9 111.34,38.9 38.45,0 72.43,-9.05 101.94,-27.16 29.52,-18.11 52.77,-44.39 69.76,-78.81 l -90.54,-52.99 c -16.99,36.23 -44.05,54.33 -81.16,54.33 -15.65,0 -27.94,-3.35 -36.89,-10.05 -8.95,-6.71 -13.41,-15.21 -13.41,-25.51 0,-11.16 5.36,-21.23 16.09,-30.17 11.62,-8.94 34.43,-18.33 68.42,-28.17 l 43.59,-14.09 c 11.17,-3.57 24.14,-9.6 38.9,-18.11 16.1,-8.04 28.16,-16.75 36.22,-26.15 21.46,-23.25 32.19,-52.32 32.19,-87.19 0,-44.26 -16.09,-79.6 -48.29,-105.98 -32.19,-25.48 -74.22,-38.22 -126.09,-38.22 z m 621.74,70.42 c -47.4,-46.95 -105.08,-70.42 -173.04,-70.42 -67.97,0 -125.65,23.47 -173.04,70.42 -47.4,46.96 -71.1,104.85 -71.1,173.72 0,68.86 23.7,126.76 71.1,173.71 47.39,46.95 105.07,70.42 173.04,70.42 67.96,0 125.64,-23.47 173.04,-70.42 47.39,-46.95 71.1,-104.85 71.1,-173.71 0,-68.87 -23.71,-126.76 -71.1,-173.72 z m -309.86,173.72 c 0,-41.14 12.96,-74.68 38.9,-100.6 25.94,-25.94 58.57,-38.91 97.92,-38.91 38.91,0 71.32,12.97 97.26,38.91 26.38,26.38 39.57,59.9 39.57,100.6 0,40.68 -13.19,74.21 -39.57,100.59 -25.94,25.95 -58.35,38.91 -97.26,38.91 -39.35,0 -71.98,-12.96 -97.92,-38.91 -25.94,-25.92 -38.9,-59.46 -38.9,-100.59 z m 548.63,234.74 v -366.2 h 167.68 v -103.3 h -274.99 v 469.5 z m 204.56,-317.91 v 317.91 h 107.32 V 2738.8 c 0,-43.83 24.59,-65.73 73.77,-65.73 49.2,0 73.79,21.9 73.79,65.73 v 308.52 h 107.31 v -317.91 c 0,-49.63 -16.99,-88.76 -50.97,-117.37 -34.44,-29.08 -77.81,-43.6 -130.13,-43.6 -52.31,0 -95.69,14.52 -130.12,43.6 -33.98,28.61 -50.97,67.74 -50.97,117.37 z m 405.78,317.91 h 348.77 V 2944.03 H 4090.31 V 2577.82 H 3983 v 366.21 h -120.73 z m 395.72,-469.5 v 469.5 h 107.31 v -469.5 z m 584.85,61.04 c -47.39,-46.95 -105.07,-70.42 -173.04,-70.42 -67.97,0 -125.65,23.47 -173.05,70.42 -47.39,46.96 -71.09,104.85 -71.09,173.72 0,68.86 23.7,126.76 71.09,173.71 47.4,46.95 105.08,70.42 173.05,70.42 67.97,0 125.65,-23.47 173.04,-70.42 47.39,-46.95 71.09,-104.85 71.09,-173.71 0,-68.87 -23.7,-126.76 -71.09,-173.72 z m -309.86,173.72 c 0,-41.14 12.96,-74.68 38.9,-100.6 25.94,-25.94 58.57,-38.91 97.92,-38.91 38.91,0 71.32,12.97 97.24,38.91 26.4,26.38 39.59,59.9 39.59,100.6 0,40.68 -13.19,74.21 -39.59,100.59 -25.92,25.95 -58.33,38.91 -97.24,38.91 -39.35,0 -71.98,-12.96 -97.92,-38.91 -25.94,-25.92 -38.9,-59.46 -38.9,-100.59 z m 702.88,-20.13 v 254.87 h 107.33 v -469.5 h -80.49 l -181.1,254.88 v -254.88 h -107.3 v 469.5 h 80.48 z m 345.43,-224.01 c -46.96,0 -86.52,10.17 -118.72,30.51 -32.19,20.34 -55.22,48.85 -69.07,85.52 l 92.55,53.66 c 18.77,-43.37 51.63,-65.06 98.59,-65.06 42.47,0 63.71,12.75 63.71,38.23 0,14.31 -6.92,25.04 -20.79,32.19 -14.31,8.49 -39.79,17.67 -76.45,27.5 -37.57,10.29 -69.32,25.05 -95.24,44.26 -28.63,23.25 -42.93,56.13 -42.93,98.6 0,43.37 15.42,78.02 46.28,103.96 31.3,25.93 68.41,38.9 111.32,38.9 38.46,0 72.45,-9.05 101.96,-27.16 29.52,-18.11 52.77,-44.39 69.76,-78.81 l -90.55,-52.99 c -16.99,36.23 -44.04,54.33 -81.17,54.33 -15.63,0 -27.92,-3.35 -36.88,-10.05 -8.94,-6.71 -13.41,-15.21 -13.41,-25.51 0,-11.16 5.36,-21.23 16.1,-30.17 11.62,-8.94 34.43,-18.33 68.4,-28.17 l 43.6,-14.09 c 11.19,-3.57 24.15,-9.6 38.91,-18.11 16.1,-8.04 28.17,-16.75 36.21,-26.15 21.47,-23.25 32.2,-52.32 32.2,-87.19 0,-44.26 -16.11,-79.6 -48.3,-105.98 -32.19,-25.48 -74.21,-38.22 -126.08,-38.22 z m -2853.52,737.65 v -83.16 h 187.8 v -103.29 h -295.12 v 469.49 h 291.77 v -103.27 h -184.45 v -77.81 h 167.68 v -101.96 z m 468.82,-195.84 c -70.21,0 -128.55,23.26 -175.05,69.75 -46.06,46.51 -69.09,104.63 -69.09,174.39 0,69.75 23.03,127.65 69.09,173.71 46.05,46.95 104.4,70.43 175.05,70.43 42.03,0 80.93,-9.73 116.7,-29.17 35.77,-19.46 63.94,-45.95 84.51,-79.48 l -92.56,-53.66 c -10.28,18.33 -24.93,32.53 -43.93,42.6 -19.01,10.04 -40.58,15.08 -64.72,15.08 -42.04,0 -75.34,-12.74 -99.93,-38.24 -24.6,-25.03 -36.89,-58.79 -36.89,-101.27 0,-42.48 12.29,-76.23 36.89,-101.28 24.59,-25.49 57.89,-38.22 99.93,-38.22 23.69,0 45.28,5.13 64.72,15.42 19.46,10.28 34.09,24.37 43.93,42.26 l 92.56,-53.66 c -20.12,-33.54 -48.06,-60.02 -83.84,-79.48 -35.77,-19.45 -74.89,-29.18 -117.37,-29.18 z m 506.38,299.14 v 179.74 h 107.31 v -469.49 h -107.31 v 186.45 H 3555.41 V 3119.64 H 3448.1 v 469.49 h 107.31 v -179.74 z m 449.37,-75.12 v 254.86 h 107.32 v -469.49 h -80.5 l -181.08,254.87 v -254.87 h -107.31 v 469.49 h 80.48 z m 187.8,-214.63 v 469.49 h 107.31 v -469.49 z m 411.81,-9.39 c -70.2,0 -128.55,23.26 -175.06,69.75 -46.05,46.51 -69.07,104.63 -69.07,174.39 0,69.75 23.02,127.65 69.07,173.71 46.06,46.95 104.41,70.43 175.06,70.43 42.03,0 80.92,-9.73 116.69,-29.17 35.79,-19.46 63.96,-45.95 84.52,-79.48 l -92.56,-53.66 c -10.29,18.33 -24.93,32.53 -43.92,42.6 -19.02,10.04 -40.59,15.08 -64.73,15.08 -42.03,0 -75.34,-12.74 -99.93,-38.24 -24.61,-25.03 -36.89,-58.79 -36.89,-101.27 0,-42.48 12.28,-76.23 36.89,-101.28 24.59,-25.49 57.9,-38.22 99.93,-38.22 23.7,0 45.27,5.13 64.73,15.42 19.44,10.28 34.08,24.37 43.92,42.26 l 92.56,-53.66 c -20.13,-33.54 -48.07,-60.02 -83.84,-79.48 -35.77,-19.45 -74.89,-29.18 -117.37,-29.18 z m 667.35,9.39 h -117.38 l -23.47,73.78 h -174.39 l -23.47,-73.78 h -117.37 l 159.62,469.49 h 136.83 z m -228.04,346.76 -55,-172.37 h 109.99 z m 375.59,122.73 v -366.2 h 167.68 v -103.29 h -274.99 v 469.49 z"
         clip-rule="evenodd"
         id="path15" />
    </clipPath>
    <clipPath
       clipPathUnits="userSpaceOnUse"
       id="clipPath17">
      <path
         d="m 4771.86,3691.07 h -545.53 l -437.26,564.02 h -992.23 l 15.97,-564.02 h -531.65 l -3.76,2482.03 h 529.92 z m -200.98,399.31 c 4.51,-0.06 9.06,-0.11 13.64,-0.11 158.91,0 279.08,33.61 359.4,100.81 80.87,67.79 121.32,146.39 121.32,236.38 0,58.1 -17.1,107.08 -51.27,147.51 -33.6,41.02 -92.83,76.34 -177.7,105.95 -57.52,20.5 -189.68,55.81 -395.29,107.07 -264.85,65.51 -450.52,146.39 -557.03,242.08 -150.37,134.41 -225.55,298.45 -225.55,492.1 0,124.74 35.31,240.93 105.94,349.72 70.62,108.21 172.58,190.81 305.28,247.77 133.28,56.38 293.34,84.86 481.3,84.86 307.56,0 538.24,-67.21 693.72,-201.63 154.93,-135 236.38,-314.41 244.35,-539.38 l -493.81,-21.65 c -21.09,125.87 -66.64,216.44 -136.13,271.12 -69.5,55.24 -173.71,82.58 -312.69,82.58 -143.54,0 -256.31,-29.04 -337.19,-88.28 -52.4,-37.59 -78.6,-88.29 -78.6,-151.5 0,-58.1 24.49,-107.65 73.48,-148.66 62.07,-52.4 213.58,-107.07 453.94,-163.47 240.35,-56.95 418.06,-115.62 533.12,-175.99 115.05,-60.95 205.04,-143.53 270.54,-248.91 64.94,-105.37 97.4,-235.23 97.4,-389.59 0,-140.1 -38.73,-271.68 -116.77,-393.55 -78.03,-122.47 -187.96,-213.6 -330.35,-272.83 -71.03,-29.83 -150.85,-52.14 -239.39,-67.04 z m -1105.84,582.52 -702.32,921.16 25.03,-921.16 z M 2224.74,3589.13 h 348.77 v -103.27 h -120.73 v -366.22 h -107.31 v 366.22 h -120.73 z m 166.68,-1020.69 c -46.95,0 -86.51,10.17 -118.71,30.51 -32.2,20.34 -55.23,48.85 -69.08,85.52 l 92.55,53.66 c 18.78,-43.37 51.65,-65.06 98.6,-65.06 42.47,0 63.71,12.75 63.71,38.23 0,14.31 -6.93,25.04 -20.79,32.19 -14.31,8.49 -39.8,17.67 -76.46,27.5 -37.56,10.29 -69.3,25.05 -95.24,44.26 -28.62,23.25 -42.93,56.13 -42.93,98.6 0,43.37 15.43,78.02 46.28,103.96 31.31,25.93 68.41,38.9 111.34,38.9 38.45,0 72.43,-9.05 101.94,-27.16 29.52,-18.11 52.77,-44.39 69.76,-78.81 l -90.54,-52.99 c -16.99,36.23 -44.05,54.33 -81.16,54.33 -15.65,0 -27.94,-3.35 -36.89,-10.05 -8.95,-6.71 -13.41,-15.21 -13.41,-25.51 0,-11.16 5.36,-21.23 16.09,-30.17 11.62,-8.94 34.43,-18.33 68.42,-28.17 l 43.59,-14.09 c 11.17,-3.57 24.14,-9.6 38.9,-18.11 16.1,-8.04 28.16,-16.75 36.22,-26.15 21.46,-23.25 32.19,-52.32 32.19,-87.19 0,-44.26 -16.09,-79.6 -48.29,-105.98 -32.19,-25.48 -74.22,-38.22 -126.09,-38.22 z m 621.74,70.42 c -47.4,-46.95 -105.08,-70.42 -173.04,-70.42 -67.97,0 -125.65,23.47 -173.04,70.42 -47.4,46.96 -71.1,104.85 -71.1,173.72 0,68.86 23.7,126.76 71.1,173.71 47.39,46.95 105.07,70.42 173.04,70.42 67.96,0 125.64,-23.47 173.04,-70.42 47.39,-46.95 71.1,-104.85 71.1,-173.71 0,-68.87 -23.71,-126.76 -71.1,-173.72 z m -309.86,173.72 c 0,-41.14 12.96,-74.68 38.9,-100.6 25.94,-25.94 58.57,-38.91 97.92,-38.91 38.91,0 71.32,12.97 97.26,38.91 26.38,26.38 39.57,59.9 39.57,100.6 0,40.68 -13.19,74.21 -39.57,100.59 -25.94,25.95 -58.35,38.91 -97.26,38.91 -39.35,0 -71.98,-12.96 -97.92,-38.91 -25.94,-25.92 -38.9,-59.46 -38.9,-100.59 z m 548.63,234.74 v -366.2 h 167.68 v -103.3 h -274.99 v 469.5 z m 204.56,-317.91 v 317.91 h 107.32 V 2738.8 c 0,-43.83 24.59,-65.73 73.77,-65.73 49.2,0 73.79,21.9 73.79,65.73 v 308.52 h 107.31 v -317.91 c 0,-49.63 -16.99,-88.76 -50.97,-117.37 -34.44,-29.08 -77.81,-43.6 -130.13,-43.6 -52.31,0 -95.69,14.52 -130.12,43.6 -33.98,28.61 -50.97,67.74 -50.97,117.37 z m 405.78,317.91 h 348.77 V 2944.03 H 4090.31 V 2577.82 H 3983 v 366.21 h -120.73 z m 395.72,-469.5 v 469.5 h 107.31 v -469.5 z m 584.85,61.04 c -47.39,-46.95 -105.07,-70.42 -173.04,-70.42 -67.97,0 -125.65,23.47 -173.05,70.42 -47.39,46.96 -71.09,104.85 -71.09,173.72 0,68.86 23.7,126.76 71.09,173.71 47.4,46.95 105.08,70.42 173.05,70.42 67.97,0 125.65,-23.47 173.04,-70.42 47.39,-46.95 71.09,-104.85 71.09,-173.71 0,-68.87 -23.7,-126.76 -71.09,-173.72 z m -309.86,173.72 c 0,-41.14 12.96,-74.68 38.9,-100.6 25.94,-25.94 58.57,-38.91 97.92,-38.91 38.91,0 71.32,12.97 97.24,38.91 26.4,26.38 39.59,59.9 39.59,100.6 0,40.68 -13.19,74.21 -39.59,100.59 -25.92,25.95 -58.33,38.91 -97.24,38.91 -39.35,0 -71.98,-12.96 -97.92,-38.91 -25.94,-25.92 -38.9,-59.46 -38.9,-100.59 z m 702.88,-20.13 v 254.87 h 107.33 v -469.5 h -80.49 l -181.1,254.88 v -254.88 h -107.3 v 469.5 h 80.48 z m 345.43,-224.01 c -46.96,0 -86.52,10.17 -118.72,30.51 -32.19,20.34 -55.22,48.85 -69.07,85.52 l 92.55,53.66 c 18.77,-43.37 51.63,-65.06 98.59,-65.06 42.47,0 63.71,12.75 63.71,38.23 0,14.31 -6.92,25.04 -20.79,32.19 -14.31,8.49 -39.79,17.67 -76.45,27.5 -37.57,10.29 -69.32,25.05 -95.24,44.26 -28.63,23.25 -42.93,56.13 -42.93,98.6 0,43.37 15.42,78.02 46.28,103.96 31.3,25.93 68.41,38.9 111.32,38.9 38.46,0 72.45,-9.05 101.96,-27.16 29.52,-18.11 52.77,-44.39 69.76,-78.81 l -90.55,-52.99 c -16.99,36.23 -44.04,54.33 -81.17,54.33 -15.63,0 -27.92,-3.35 -36.88,-10.05 -8.94,-6.71 -13.41,-15.21 -13.41,-25.51 0,-11.16 5.36,-21.23 16.1,-30.17 11.62,-8.94 34.43,-18.33 68.4,-28.17 l 43.6,-14.09 c 11.19,-3.57 24.15,-9.6 38.91,-18.11 16.1,-8.04 28.17,-16.75 36.21,-26.15 21.47,-23.25 32.2,-52.32 32.2,-87.19 0,-44.26 -16.11,-79.6 -48.3,-105.98 -32.19,-25.48 -74.21,-38.22 -126.08,-38.22 z m -2853.52,737.65 v -83.16 h 187.8 v -103.29 h -295.12 v 469.49 h 291.77 v -103.27 h -184.45 v -77.81 h 167.68 v -101.96 z m 468.82,-195.84 c -70.21,0 -128.55,23.26 -175.05,69.75 -46.06,46.51 -69.09,104.63 -69.09,174.39 0,69.75 23.03,127.65 69.09,173.71 46.05,46.95 104.4,70.43 175.05,70.43 42.03,0 80.93,-9.73 116.7,-29.17 35.77,-19.46 63.94,-45.95 84.51,-79.48 l -92.56,-53.66 c -10.28,18.33 -24.93,32.53 -43.93,42.6 -19.01,10.04 -40.58,15.08 -64.72,15.08 -42.04,0 -75.34,-12.74 -99.93,-38.24 -24.6,-25.03 -36.89,-58.79 -36.89,-101.27 0,-42.48 12.29,-76.23 36.89,-101.28 24.59,-25.49 57.89,-38.22 99.93,-38.22 23.69,0 45.28,5.13 64.72,15.42 19.46,10.28 34.09,24.37 43.93,42.26 l 92.56,-53.66 c -20.12,-33.54 -48.06,-60.02 -83.84,-79.48 -35.77,-19.45 -74.89,-29.18 -117.37,-29.18 z m 506.38,299.14 v 179.74 h 107.31 v -469.49 h -107.31 v 186.45 H 3555.41 V 3119.64 H 3448.1 v 469.49 h 107.31 v -179.74 z m 449.37,-75.12 v 254.86 h 107.32 v -469.49 h -80.5 l -181.08,254.87 v -254.87 h -107.31 v 469.49 h 80.48 z m 187.8,-214.63 v 469.49 h 107.31 v -469.49 z m 411.81,-9.39 c -70.2,0 -128.55,23.26 -175.06,69.75 -46.05,46.51 -69.07,104.63 -69.07,174.39 0,69.75 23.02,127.65 69.07,173.71 46.06,46.95 104.41,70.43 175.06,70.43 42.03,0 80.92,-9.73 116.69,-29.17 35.79,-19.46 63.96,-45.95 84.52,-79.48 l -92.56,-53.66 c -10.29,18.33 -24.93,32.53 -43.92,42.6 -19.02,10.04 -40.59,15.08 -64.73,15.08 -42.03,0 -75.34,-12.74 -99.93,-38.24 -24.61,-25.03 -36.89,-58.79 -36.89,-101.27 0,-42.48 12.28,-76.23 36.89,-101.28 24.59,-25.49 57.9,-38.22 99.93,-38.22 23.7,0 45.27,5.13 64.73,15.42 19.44,10.28 34.08,24.37 43.92,42.26 l 92.56,-53.66 c -20.13,-33.54 -48.07,-60.02 -83.84,-79.48 -35.77,-19.45 -74.89,-29.18 -117.37,-29.18 z m 667.35,9.39 h -117.38 l -23.47,73.78 h -174.39 l -23.47,-73.78 h -117.37 l 159.62,469.49 h 136.83 z m -228.04,346.76 -55,-172.37 h 109.99 z m 375.59,122.73 v -366.2 h 167.68 v -103.29 h -274.99 v 469.49 z"
         clip-rule="evenodd"
         id="path17" />
    </clipPath>
  </defs>
  <sodipodi:namedview
     id="namedview1"
     pagecolor="#ffffff"
     bordercolor="#000000"
     borderopacity="0.25"
     inkscape:showpageshadow="2"
     inkscape:pageopacity="0.0"
     inkscape:pagecheckerboard="0"
     inkscape:deskcolor="#d1d1d1"
     inkscape:export-bgcolor="#00000000">
    <inkscape:page
       x="0"
       y="0"
       inkscape:label="1"
       id="page1"
       width="816"
       height="1056"
       margin="0"
       bleed="0"
       inkscape:export-filename="Blau-Silber.ps.svg"
       inkscape:export-xdpi="96"
       inkscape:export-ydpi="96" />
  </sodipodi:namedview>
  <g
     id="g1"
     inkscape:groupmode="layer"
     inkscape:label="1">
    <path
       id="path1"
       d="m 1932.41,6173.73 c -334.93,-34.43 -199.3,-91.59 -263.94,-366.18 -24.12,-102.49 -90.79,-81.72 -196.77,-125.57 -87.18,-36.08 -129.66,-74.9 -216.7,-95.8 -167.13,21.56 -193.61,453.84 -635.719,-132.64 -66.484,-88.2 -35.961,-146.26 21.922,-215.8 56.613,-68.01 87.656,-115.39 131.707,-159.85 L 616.953,4683.51 c -80.558,-54.1 -231.609,-24.85 -362.187,-103.13 -28.496,-129.14 -17.743,-435.5 8.453,-547.86 97.476,-47.23 241.582,-50.15 377.465,-63.95 49.308,-131.56 109.707,-245.75 159.48,-369 -120.637,-322.88 -360.375,-204.77 -14.441,-539.26 323.707,-312.99 244.337,-119.4 539.637,37.49 133.72,-74.07 252.94,-100.68 322.17,-142.03 158.41,-94.61 -79.01,-401.78 290,-385.8 L 1937,3580.53 c -1039.414,83.97 -998.047,1463.66 0.98,1540.92 l -5.57,1052.28"
       style="fill:url(#linearGradient8);fill-opacity:1;fill-rule:nonzero;stroke:none"
       transform="matrix(0.13333333,0,0,-0.13333333,0,1056)"
       clip-path="url(#clipPath8)" />
    <path
       id="path9"
       d="m 1788.59,6149.43 c -306.77,-34.41 -179.13,-94.22 -241.88,-360.8 -23.91,-101.57 -89.99,-80.99 -195.03,-124.45 -52.91,-21.9 -93.49,-46.9 -133.5,-66.13 12.16,-6.55 23.06,-10.09 36.82,-11.87 86.97,20.88 135.59,60.7 222.7,96.74 105.89,43.82 172.52,23.06 196.62,125.47 51.7,219.63 -24.78,300.04 114.27,341.04 z M 906.355,5736.06 c -81.046,23.94 -195.71,-27.95 -399.5,-298.29 -65.89,-87.4 -35.64,-144.95 21.723,-213.88 56.117,-67.4 86.879,-114.35 130.535,-158.43 L 504.551,4674.6 C 424.707,4620.98 275,4649.97 145.578,4572.39 c -28.242,-128 -17.578,-431.63 8.383,-542.99 96.605,-46.81 239.43,-49.7 374.105,-63.37 48.872,-130.39 108.727,-243.57 158.055,-365.73 -119.558,-320.01 -357.164,-202.93 -14.305,-534.45 174.739,-168.96 230.969,-188.96 293.235,-147.03 -41.809,24.43 -95.91,70.13 -172.793,144.47 -345.668,334.23 -106.117,216.2 14.422,538.84 -49.731,123.15 -110.078,237.26 -159.352,368.72 -135.781,13.78 -279.773,16.7 -377.168,63.89 -26.176,112.28 -36.926,418.4 -8.453,547.43 130.481,78.23 281.418,49 361.914,103.05 l 155.828,394.07 c -44.011,44.44 -75.027,91.78 -131.601,159.74 -57.836,69.49 -88.336,127.51 -21.903,215.63 120.715,160.13 210.371,244.13 280.41,281.4 z M 1275.64,3068.02 c 103.91,-48.25 193.88,-72.07 250.31,-105.78 157,-93.78 -55.25,-397.82 310.47,-381.98 l -23.05,6.39 c -175.76,59.33 -25.8,292.05 -159.98,372.18 -69.17,41.31 -188.3,67.89 -321.92,141.92 -20.32,-10.79 -38.8,-21.76 -55.83,-32.73"
       style="fill:#000000;fill-opacity:1;fill-rule:evenodd;stroke:none"
       transform="matrix(0.13333333,0,0,-0.13333333,0,1056)" />
    <path
       id="path10"
       d="m 4771.86,3691.07 h -545.53 l -437.26,564.02 h -992.23 l 15.97,-564.02 h -531.65 l -3.76,2482.03 h 529.92 z m -200.98,399.31 c 4.51,-0.06 9.06,-0.11 13.64,-0.11 158.91,0 279.08,33.61 359.4,100.81 80.87,67.79 121.32,146.39 121.32,236.38 0,58.1 -17.1,107.08 -51.27,147.51 -33.6,41.02 -92.83,76.34 -177.7,105.95 -57.52,20.5 -189.68,55.81 -395.29,107.07 -264.85,65.51 -450.52,146.39 -557.03,242.08 -150.37,134.41 -225.55,298.45 -225.55,492.1 0,124.74 35.31,240.93 105.94,349.72 70.62,108.21 172.58,190.81 305.28,247.77 133.28,56.38 293.34,84.86 481.3,84.86 307.56,0 538.24,-67.21 693.72,-201.63 154.93,-135 236.38,-314.41 244.35,-539.38 l -493.81,-21.65 c -21.09,125.87 -66.64,216.44 -136.13,271.12 -69.5,55.24 -173.71,82.58 -312.69,82.58 -143.54,0 -256.31,-29.04 -337.19,-88.28 -52.4,-37.59 -78.6,-88.29 -78.6,-151.5 0,-58.1 24.49,-107.65 73.48,-148.66 62.07,-52.4 213.58,-107.07 453.94,-163.47 240.35,-56.95 418.06,-115.62 533.12,-175.99 115.05,-60.95 205.04,-143.53 270.54,-248.91 64.94,-105.37 97.4,-235.23 97.4,-389.59 0,-140.1 -38.73,-271.68 -116.77,-393.55 -78.03,-122.47 -187.96,-213.6 -330.35,-272.83 -71.03,-29.83 -150.85,-52.14 -239.39,-67.04 z m -1105.84,582.52 -702.32,921.16 25.03,-921.16 z M 2224.74,3589.13 h 348.77 v -103.27 h -120.73 v -366.22 h -107.31 v 366.22 h -120.73 z m 166.68,-1020.69 c -46.95,0 -86.51,10.17 -118.71,30.51 -32.2,20.34 -55.23,48.85 -69.08,85.52 l 92.55,53.66 c 18.78,-43.37 51.65,-65.06 98.6,-65.06 42.47,0 63.71,12.75 63.71,38.23 0,14.31 -6.93,25.04 -20.79,32.19 -14.31,8.49 -39.8,17.67 -76.46,27.5 -37.56,10.29 -69.3,25.05 -95.24,44.26 -28.62,23.25 -42.93,56.13 -42.93,98.6 0,43.37 15.43,78.02 46.28,103.96 31.31,25.93 68.41,38.9 111.34,38.9 38.45,0 72.43,-9.05 101.94,-27.16 29.52,-18.11 52.77,-44.39 69.76,-78.81 l -90.54,-52.99 c -16.99,36.23 -44.05,54.33 -81.16,54.33 -15.65,0 -27.94,-3.35 -36.89,-10.05 -8.95,-6.71 -13.41,-15.21 -13.41,-25.51 0,-11.16 5.36,-21.23 16.09,-30.17 11.62,-8.94 34.43,-18.33 68.42,-28.17 l 43.59,-14.09 c 11.17,-3.57 24.14,-9.6 38.9,-18.11 16.1,-8.04 28.16,-16.75 36.22,-26.15 21.46,-23.25 32.19,-52.32 32.19,-87.19 0,-44.26 -16.09,-79.6 -48.29,-105.98 -32.19,-25.48 -74.22,-38.22 -126.09,-38.22 z m 621.74,70.42 c -47.4,-46.95 -105.08,-70.42 -173.04,-70.42 -67.97,0 -125.65,23.47 -173.04,70.42 -47.4,46.96 -71.1,104.85 -71.1,173.72 0,68.86 23.7,126.76 71.1,173.71 47.39,46.95 105.07,70.42 173.04,70.42 67.96,0 125.64,-23.47 173.04,-70.42 47.39,-46.95 71.1,-104.85 71.1,-173.71 0,-68.87 -23.71,-126.76 -71.1,-173.72 z m -309.86,173.72 c 0,-41.14 12.96,-74.68 38.9,-100.6 25.94,-25.94 58.57,-38.91 97.92,-38.91 38.91,0 71.32,12.97 97.26,38.91 26.38,26.38 39.57,59.9 39.57,100.6 0,40.68 -13.19,74.21 -39.57,100.59 -25.94,25.95 -58.35,38.91 -97.26,38.91 -39.35,0 -71.98,-12.96 -97.92,-38.91 -25.94,-25.92 -38.9,-59.46 -38.9,-100.59 z m 548.63,234.74 v -366.2 h 167.68 v -103.3 h -274.99 v 469.5 z m 204.56,-317.91 v 317.91 h 107.32 V 2738.8 c 0,-43.83 24.59,-65.73 73.77,-65.73 49.2,0 73.79,21.9 73.79,65.73 v 308.52 h 107.31 v -317.91 c 0,-49.63 -16.99,-88.76 -50.97,-117.37 -34.44,-29.08 -77.81,-43.6 -130.13,-43.6 -52.31,0 -95.69,14.52 -130.12,43.6 -33.98,28.61 -50.97,67.74 -50.97,117.37 z m 405.78,317.91 h 348.77 V 2944.03 H 4090.31 V 2577.82 H 3983 v 366.21 h -120.73 z m 395.72,-469.5 v 469.5 h 107.31 v -469.5 z m 584.85,61.04 c -47.39,-46.95 -105.07,-70.42 -173.04,-70.42 -67.97,0 -125.65,23.47 -173.05,70.42 -47.39,46.96 -71.09,104.85 -71.09,173.72 0,68.86 23.7,126.76 71.09,173.71 47.4,46.95 105.08,70.42 173.05,70.42 67.97,0 125.65,-23.47 173.04,-70.42 47.39,-46.95 71.09,-104.85 71.09,-173.71 0,-68.87 -23.7,-126.76 -71.09,-173.72 z m -309.86,173.72 c 0,-41.14 12.96,-74.68 38.9,-100.6 25.94,-25.94 58.57,-38.91 97.92,-38.91 38.91,0 71.32,12.97 97.24,38.91 26.4,26.38 39.59,59.9 39.59,100.6 0,40.68 -13.19,74.21 -39.59,100.59 -25.92,25.95 -58.33,38.91 -97.24,38.91 -39.35,0 -71.98,-12.96 -97.92,-38.91 -25.94,-25.92 -38.9,-59.46 -38.9,-100.59 z m 702.88,-20.13 v 254.87 h 107.33 v -469.5 h -80.49 l -181.1,254.88 v -254.88 h -107.3 v 469.5 h 80.48 z m 345.43,-224.01 c -46.96,0 -86.52,10.17 -118.72,30.51 -32.19,20.34 -55.22,48.85 -69.07,85.52 l 92.55,53.66 c 18.77,-43.37 51.63,-65.06 98.59,-65.06 42.47,0 63.71,12.75 63.71,38.23 0,14.31 -6.92,25.04 -20.79,32.19 -14.31,8.49 -39.79,17.67 -76.45,27.5 -37.57,10.29 -69.32,25.05 -95.24,44.26 -28.63,23.25 -42.93,56.13 -42.93,98.6 0,43.37 15.42,78.02 46.28,103.96 31.3,25.93 68.41,38.9 111.32,38.9 38.46,0 72.45,-9.05 101.96,-27.16 29.52,-18.11 52.77,-44.39 69.76,-78.81 l -90.55,-52.99 c -16.99,36.23 -44.04,54.33 -81.17,54.33 -15.63,0 -27.92,-3.35 -36.88,-10.05 -8.94,-6.71 -13.41,-15.21 -13.41,-25.51 0,-11.16 5.36,-21.23 16.1,-30.17 11.62,-8.94 34.43,-18.33 68.4,-28.17 l 43.6,-14.09 c 11.19,-3.57 24.15,-9.6 38.91,-18.11 16.1,-8.04 28.17,-16.75 36.21,-26.15 21.47,-23.25 32.2,-52.32 32.2,-87.19 0,-44.26 -16.11,-79.6 -48.3,-105.98 -32.19,-25.48 -74.21,-38.22 -126.08,-38.22 z m -2853.52,737.65 v -83.16 h 187.8 v -103.29 h -295.12 v 469.49 h 291.77 v -103.27 h -184.45 v -77.81 h 167.68 v -101.96 z m 468.82,-195.84 c -70.21,0 -128.55,23.26 -175.05,69.75 -46.06,46.51 -69.09,104.63 -69.09,174.39 0,69.75 23.03,127.65 69.09,173.71 46.05,46.95 104.4,70.43 175.05,70.43 42.03,0 80.93,-9.73 116.7,-29.17 35.77,-19.46 63.94,-45.95 84.51,-79.48 l -92.56,-53.66 c -10.28,18.33 -24.93,32.53 -43.93,42.6 -19.01,10.04 -40.58,15.08 -64.72,15.08 -42.04,0 -75.34,-12.74 -99.93,-38.24 -24.6,-25.03 -36.89,-58.79 -36.89,-101.27 0,-42.48 12.29,-76.23 36.89,-101.28 24.59,-25.49 57.89,-38.22 99.93,-38.22 23.69,0 45.28,5.13 64.72,15.42 19.46,10.28 34.09,24.37 43.93,42.26 l 92.56,-53.66 c -20.12,-33.54 -48.06,-60.02 -83.84,-79.48 -35.77,-19.45 -74.89,-29.18 -117.37,-29.18 z m 506.38,299.14 v 179.74 h 107.31 v -469.49 h -107.31 v 186.45 H 3555.41 V 3119.64 H 3448.1 v 469.49 h 107.31 v -179.74 z m 449.37,-75.12 v 254.86 h 107.32 v -469.49 h -80.5 l -181.08,254.87 v -254.87 h -107.31 v 469.49 h 80.48 z m 187.8,-214.63 v 469.49 h 107.31 v -469.49 z m 411.81,-9.39 c -70.2,0 -128.55,23.26 -175.06,69.75 -46.05,46.51 -69.07,104.63 -69.07,174.39 0,69.75 23.02,127.65 69.07,173.71 46.06,46.95 104.41,70.43 175.06,70.43 42.03,0 80.92,-9.73 116.69,-29.17 35.79,-19.46 63.96,-45.95 84.52,-79.48 l -92.56,-53.66 c -10.29,18.33 -24.93,32.53 -43.92,42.6 -19.02,10.04 -40.59,15.08 -64.73,15.08 -42.03,0 -75.34,-12.74 -99.93,-38.24 -24.61,-25.03 -36.89,-58.79 -36.89,-101.27 0,-42.48 12.28,-76.23 36.89,-101.28 24.59,-25.49 57.9,-38.22 99.93,-38.22 23.7,0 45.27,5.13 64.73,15.42 19.44,10.28 34.08,24.37 43.92,42.26 l 92.56,-53.66 c -20.13,-33.54 -48.07,-60.02 -83.84,-79.48 -35.77,-19.45 -74.89,-29.18 -117.37,-29.18 z m 667.35,9.39 h -117.38 l -23.47,73.78 h -174.39 l -23.47,-73.78 h -117.37 l 159.62,469.49 h 136.83 z m -228.04,346.76 -55,-172.37 h 109.99 z m 375.59,122.73 v -366.2 h 167.68 v -103.29 h -274.99 v 469.49 h 107.31"
       style="fill:url(#linearGradient11);fill-opacity:1;fill-rule:nonzero;stroke:none"
       transform="matrix(0.13333333,0,0,-0.13333333,0,1056)"
       clip-path="url(#clipPath11)" />
    <path
       id="path12"
       d="m 2972.85,3171.29 c 31.64,0 57.29,-9.74 57.29,-21.75 0,-12 -25.65,-21.74 -57.29,-21.74 -31.64,0 -57.28,9.74 -57.28,21.74 0,12.01 25.64,21.75 57.28,21.75 z"
       style="fill:none;stroke:#000000;stroke-width:5.0003;stroke-linecap:butt;stroke-linejoin:miter;stroke-miterlimit:2.61313;stroke-dasharray:none;stroke-opacity:1"
       transform="matrix(0.13333333,0,0,-0.13333333,0,1056)"
       clip-path="url(#clipPath13)" />
    <path
       id="path14"
       d="m 4771.86,3691.07 h -545.53 l -437.26,564.02 h -992.23 l 15.97,-564.02 h -531.65 l -3.76,2482.03 h 529.92 z m -200.98,399.31 c 4.51,-0.06 9.06,-0.11 13.64,-0.11 158.91,0 279.08,33.61 359.4,100.81 80.87,67.79 121.32,146.39 121.32,236.38 0,58.1 -17.1,107.08 -51.27,147.51 -33.6,41.02 -92.83,76.34 -177.7,105.95 -57.52,20.5 -189.68,55.81 -395.29,107.07 -264.85,65.51 -450.52,146.39 -557.03,242.08 -150.37,134.41 -225.55,298.45 -225.55,492.1 0,124.74 35.31,240.93 105.94,349.72 70.62,108.21 172.58,190.81 305.28,247.77 133.28,56.38 293.34,84.86 481.3,84.86 307.56,0 538.24,-67.21 693.72,-201.63 154.93,-135 236.38,-314.41 244.35,-539.38 l -493.81,-21.65 c -21.09,125.87 -66.64,216.44 -136.13,271.12 -69.5,55.24 -173.71,82.58 -312.69,82.58 -143.54,0 -256.31,-29.04 -337.19,-88.28 -52.4,-37.59 -78.6,-88.29 -78.6,-151.5 0,-58.1 24.49,-107.65 73.48,-148.66 62.07,-52.4 213.58,-107.07 453.94,-163.47 240.35,-56.95 418.06,-115.62 533.12,-175.99 115.05,-60.95 205.04,-143.53 270.54,-248.91 64.94,-105.37 97.4,-235.23 97.4,-389.59 0,-140.1 -38.73,-271.68 -116.77,-393.55 -78.03,-122.47 -187.96,-213.6 -330.35,-272.83 -71.03,-29.83 -150.85,-52.14 -239.39,-67.04 z m -1105.84,582.52 -702.32,921.16 25.03,-921.16 z M 2224.74,3589.13 h 348.77 v -103.27 h -120.73 v -366.22 h -107.31 v 366.22 h -120.73 z m 166.68,-1020.69 c -46.95,0 -86.51,10.17 -118.71,30.51 -32.2,20.34 -55.23,48.85 -69.08,85.52 l 92.55,53.66 c 18.78,-43.37 51.65,-65.06 98.6,-65.06 42.47,0 63.71,12.75 63.71,38.23 0,14.31 -6.93,25.04 -20.79,32.19 -14.31,8.49 -39.8,17.67 -76.46,27.5 -37.56,10.29 -69.3,25.05 -95.24,44.26 -28.62,23.25 -42.93,56.13 -42.93,98.6 0,43.37 15.43,78.02 46.28,103.96 31.31,25.93 68.41,38.9 111.34,38.9 38.45,0 72.43,-9.05 101.94,-27.16 29.52,-18.11 52.77,-44.39 69.76,-78.81 l -90.54,-52.99 c -16.99,36.23 -44.05,54.33 -81.16,54.33 -15.65,0 -27.94,-3.35 -36.89,-10.05 -8.95,-6.71 -13.41,-15.21 -13.41,-25.51 0,-11.16 5.36,-21.23 16.09,-30.17 11.62,-8.94 34.43,-18.33 68.42,-28.17 l 43.59,-14.09 c 11.17,-3.57 24.14,-9.6 38.9,-18.11 16.1,-8.04 28.16,-16.75 36.22,-26.15 21.46,-23.25 32.19,-52.32 32.19,-87.19 0,-44.26 -16.09,-79.6 -48.29,-105.98 -32.19,-25.48 -74.22,-38.22 -126.09,-38.22 z m 621.74,70.42 c -47.4,-46.95 -105.08,-70.42 -173.04,-70.42 -67.97,0 -125.65,23.47 -173.04,70.42 -47.4,46.96 -71.1,104.85 -71.1,173.72 0,68.86 23.7,126.76 71.1,173.71 47.39,46.95 105.07,70.42 173.04,70.42 67.96,0 125.64,-23.47 173.04,-70.42 47.39,-46.95 71.1,-104.85 71.1,-173.71 0,-68.87 -23.71,-126.76 -71.1,-173.72 z m -309.86,173.72 c 0,-41.14 12.96,-74.68 38.9,-100.6 25.94,-25.94 58.57,-38.91 97.92,-38.91 38.91,0 71.32,12.97 97.26,38.91 26.38,26.38 39.57,59.9 39.57,100.6 0,40.68 -13.19,74.21 -39.57,100.59 -25.94,25.95 -58.35,38.91 -97.26,38.91 -39.35,0 -71.98,-12.96 -97.92,-38.91 -25.94,-25.92 -38.9,-59.46 -38.9,-100.59 z m 548.63,234.74 v -366.2 h 167.68 v -103.3 h -274.99 v 469.5 z m 204.56,-317.91 v 317.91 h 107.32 V 2738.8 c 0,-43.83 24.59,-65.73 73.77,-65.73 49.2,0 73.79,21.9 73.79,65.73 v 308.52 h 107.31 v -317.91 c 0,-49.63 -16.99,-88.76 -50.97,-117.37 -34.44,-29.08 -77.81,-43.6 -130.13,-43.6 -52.31,0 -95.69,14.52 -130.12,43.6 -33.98,28.61 -50.97,67.74 -50.97,117.37 z m 405.78,317.91 h 348.77 V 2944.03 H 4090.31 V 2577.82 H 3983 v 366.21 h -120.73 z m 395.72,-469.5 v 469.5 h 107.31 v -469.5 z m 584.85,61.04 c -47.39,-46.95 -105.07,-70.42 -173.04,-70.42 -67.97,0 -125.65,23.47 -173.05,70.42 -47.39,46.96 -71.09,104.85 -71.09,173.72 0,68.86 23.7,126.76 71.09,173.71 47.4,46.95 105.08,70.42 173.05,70.42 67.97,0 125.65,-23.47 173.04,-70.42 47.39,-46.95 71.09,-104.85 71.09,-173.71 0,-68.87 -23.7,-126.76 -71.09,-173.72 z m -309.86,173.72 c 0,-41.14 12.96,-74.68 38.9,-100.6 25.94,-25.94 58.57,-38.91 97.92,-38.91 38.91,0 71.32,12.97 97.24,38.91 26.4,26.38 39.59,59.9 39.59,100.6 0,40.68 -13.19,74.21 -39.59,100.59 -25.92,25.95 -58.33,38.91 -97.24,38.91 -39.35,0 -71.98,-12.96 -97.92,-38.91 -25.94,-25.92 -38.9,-59.46 -38.9,-100.59 z m 702.88,-20.13 v 254.87 h 107.33 v -469.5 h -80.49 l -181.1,254.88 v -254.88 h -107.3 v 469.5 h 80.48 z m 345.43,-224.01 c -46.96,0 -86.52,10.17 -118.72,30.51 -32.19,20.34 -55.22,48.85 -69.07,85.52 l 92.55,53.66 c 18.77,-43.37 51.63,-65.06 98.59,-65.06 42.47,0 63.71,12.75 63.71,38.23 0,14.31 -6.92,25.04 -20.79,32.19 -14.31,8.49 -39.79,17.67 -76.45,27.5 -37.57,10.29 -69.32,25.05 -95.24,44.26 -28.63,23.25 -42.93,56.13 -42.93,98.6 0,43.37 15.42,78.02 46.28,103.96 31.3,25.93 68.41,38.9 111.32,38.9 38.46,0 72.45,-9.05 101.96,-27.16 29.52,-18.11 52.77,-44.39 69.76,-78.81 l -90.55,-52.99 c -16.99,36.23 -44.04,54.33 -81.17,54.33 -15.63,0 -27.92,-3.35 -36.88,-10.05 -8.94,-6.71 -13.41,-15.21 -13.41,-25.51 0,-11.16 5.36,-21.23 16.1,-30.17 11.62,-8.94 34.43,-18.33 68.4,-28.17 l 43.6,-14.09 c 11.19,-3.57 24.15,-9.6 38.91,-18.11 16.1,-8.04 28.17,-16.75 36.21,-26.15 21.47,-23.25 32.2,-52.32 32.2,-87.19 0,-44.26 -16.11,-79.6 -48.3,-105.98 -32.19,-25.48 -74.21,-38.22 -126.08,-38.22 z m -2853.52,737.65 v -83.16 h 187.8 v -103.29 h -295.12 v 469.49 h 291.77 v -103.27 h -184.45 v -77.81 h 167.68 v -101.96 z m 468.82,-195.84 c -70.21,0 -128.55,23.26 -175.05,69.75 -46.06,46.51 -69.09,104.63 -69.09,174.39 0,69.75 23.03,127.65 69.09,173.71 46.05,46.95 104.4,70.43 175.05,70.43 42.03,0 80.93,-9.73 116.7,-29.17 35.77,-19.46 63.94,-45.95 84.51,-79.48 l -92.56,-53.66 c -10.28,18.33 -24.93,32.53 -43.93,42.6 -19.01,10.04 -40.58,15.08 -64.72,15.08 -42.04,0 -75.34,-12.74 -99.93,-38.24 -24.6,-25.03 -36.89,-58.79 -36.89,-101.27 0,-42.48 12.29,-76.23 36.89,-101.28 24.59,-25.49 57.89,-38.22 99.93,-38.22 23.69,0 45.28,5.13 64.72,15.42 19.46,10.28 34.09,24.37 43.93,42.26 l 92.56,-53.66 c -20.12,-33.54 -48.06,-60.02 -83.84,-79.48 -35.77,-19.45 -74.89,-29.18 -117.37,-29.18 z m 506.38,299.14 v 179.74 h 107.31 v -469.49 h -107.31 v 186.45 H 3555.41 V 3119.64 H 3448.1 v 469.49 h 107.31 v -179.74 z m 449.37,-75.12 v 254.86 h 107.32 v -469.49 h -80.5 l -181.08,254.87 v -254.87 h -107.31 v 469.49 h 80.48 z m 187.8,-214.63 v 469.49 h 107.31 v -469.49 z m 411.81,-9.39 c -70.2,0 -128.55,23.26 -175.06,69.75 -46.05,46.51 -69.07,104.63 -69.07,174.39 0,69.75 23.02,127.65 69.07,173.71 46.06,46.95 104.41,70.43 175.06,70.43 42.03,0 80.92,-9.73 116.69,-29.17 35.79,-19.46 63.96,-45.95 84.52,-79.48 l -92.56,-53.66 c -10.29,18.33 -24.93,32.53 -43.92,42.6 -19.02,10.04 -40.59,15.08 -64.73,15.08 -42.03,0 -75.34,-12.74 -99.93,-38.24 -24.61,-25.03 -36.89,-58.79 -36.89,-101.27 0,-42.48 12.28,-76.23 36.89,-101.28 24.59,-25.49 57.9,-38.22 99.93,-38.22 23.7,0 45.27,5.13 64.73,15.42 19.44,10.28 34.08,24.37 43.92,42.26 l 92.56,-53.66 c -20.13,-33.54 -48.07,-60.02 -83.84,-79.48 -35.77,-19.45 -74.89,-29.18 -117.37,-29.18 z m 667.35,9.39 h -117.38 l -23.47,73.78 h -174.39 l -23.47,-73.78 h -117.37 l 159.62,469.49 h 136.83 z m -228.04,346.76 -55,-172.37 h 109.99 z m 375.59,122.73 v -366.2 h 167.68 v -103.29 h -274.99 v 469.49 h 107.31"
       style="fill:url(#linearGradient15);fill-opacity:1;fill-rule:nonzero;stroke:none"
       transform="matrix(0.13333333,0,0,-0.13333333,0,1056)"
       clip-path="url(#clipPath15)" />
    <path
       id="path16"
       d="m 2972.85,3171.29 c 31.64,0 57.29,-9.74 57.29,-21.75 0,-12 -25.65,-21.74 -57.29,-21.74 -31.64,0 -57.28,9.74 -57.28,21.74 0,12.01 25.64,21.75 57.28,21.75 z"
       style="fill:none;stroke:#000000;stroke-width:5.0003;stroke-linecap:butt;stroke-linejoin:miter;stroke-miterlimit:2.61313;stroke-dasharray:none;stroke-opacity:1"
       transform="matrix(0.13333333,0,0,-0.13333333,0,1056)"
       clip-path="url(#clipPath17)" />
  </g>
</svg>
