<svg xmlns="http://www.w3.org/2000/svg" xmlns:xlink="http://www.w3.org/1999/xlink" id="Capa_2" data-name="Capa 2" viewBox="0 0 609.68 71.02"><defs><style>      .cls-1, .cls-2 {        fill: #1d1d1b;      }      .cls-1, .cls-2, .cls-3 {        stroke-width: 0px;      }      .cls-2 {        fill-rule: evenodd;      }      .cls-3 {        fill: url(#Degradado_sin_nombre_2);      }    </style><linearGradient id="Degradado_sin_nombre_2" data-name="Degradado sin nombre 2" x1="184.01" y1="104.89" x2="188.91" y2="104.89" gradientTransform="translate(-1471.92 -2667.9) rotate(90) scale(14.5 -14.5)" gradientUnits="userSpaceOnUse"><stop offset="0" stop-color="#57c4f2"></stop><stop offset=".01" stop-color="#57c4f2"></stop><stop offset=".27" stop-color="#49aadf"></stop><stop offset=".82" stop-color="#2568b0"></stop><stop offset="1" stop-color="#1951a0"></stop></linearGradient></defs><g id="Gu&#xED;as"><g><g><polygon class="cls-2" points="130.57 14.72 130.57 23.29 174.2 23.29 139.49 70.1 139.49 70.68 609.68 70.68 609.68 63.15 161.45 63.15 196.38 15.71 196.38 14.72 130.57 14.72"></polygon><polygon class="cls-2" points="215.96 16.92 261.03 16.92 261.03 25.26 229.87 25.26 229.87 31.87 258.14 31.87 258.14 40.21 229.87 40.21 229.87 48.78 262.08 48.78 262.08 57.13 215.96 57.13 215.96 16.92"></polygon><polygon class="cls-2" points="361.14 57.07 361.14 16.81 380.61 16.81 390.46 45.65 400.77 16.86 419.65 16.86 419.65 57.13 406.85 57.13 406.85 29.03 396.94 57.18 383.79 57.18 374.29 28.62 374.29 57.18 361.14 57.07"></polygon><path class="cls-2" d="M477.47,16.86h-15.24l-21.26,40.26h14.08l4.11-7.71h20.92l3.82,7.59h14.94l-21.37-40.15ZM463.68,40.73l6.08-12.63,6.03,12.63h-12.11Z"></path><polygon class="cls-2" points="519.8 57.18 519.8 9.07 429.26 9.07 429.26 .44 609.68 .44 609.68 8.95 534.11 8.95 534.11 57.18 519.8 57.18"></polygon><path class="cls-2" d="M603.83,13.28c.98,0,1.94.25,2.88.76.93.5,1.66,1.22,2.19,2.16.52.94.78,1.92.78,2.93s-.26,1.98-.77,2.91c-.51.93-1.24,1.65-2.16,2.17-.93.51-1.9.77-2.91.77s-1.98-.26-2.91-.77c-.93-.51-1.65-1.24-2.17-2.17-.52-.93-.78-1.9-.78-2.91s.26-2,.79-2.93c.52-.94,1.25-1.66,2.19-2.16.94-.5,1.89-.76,2.88-.76ZM603.83,14.25c-.82,0-1.62.21-2.4.63-.78.42-1.39,1.02-1.83,1.81-.44.78-.66,1.6-.66,2.45s.22,1.65.65,2.42c.43.77,1.04,1.37,1.81,1.81.78.43,1.58.65,2.43.65s1.65-.22,2.43-.65c.77-.43,1.38-1.03,1.81-1.81.43-.77.64-1.58.64-2.42s-.22-1.66-.66-2.45c-.44-.78-1.04-1.39-1.83-1.81-.78-.42-1.58-.63-2.4-.63ZM601.27,22.35v-6.28h2.16c.74,0,1.28.06,1.61.17.33.12.6.32.79.61.2.29.29.6.29.92,0,.46-.16.86-.49,1.2-.33.34-.76.53-1.31.57.22.09.4.2.54.33.25.25.56.66.93,1.25l.77,1.23h-1.23l-.56-.99c-.44-.78-.8-1.27-1.07-1.46-.19-.14-.46-.22-.81-.21h-.6v2.67h-1.02ZM602.28,18.82h1.23c.59,0,.99-.09,1.21-.26.21-.17.32-.41.32-.69,0-.19-.05-.35-.16-.5-.1-.15-.25-.26-.43-.33-.18-.07-.52-.11-1.02-.11h-1.16v1.89Z"></path><path class="cls-1" d="M287.64,16.51h25.55c5.94.06,13.34.11,18.56,4.14,2.65,2.13,4.5,5.35,4.5,9.03,0,8.17-7.79,10.18-11.65,11.22l13.1,16.22h-15.67l-11.25-14.5h-8.92v14.5h-14.22V16.51ZM301.86,24.1v10.99h11.73c2.01-.06,8.52-.17,8.52-5.58s-5.22-5.35-8.19-5.41h-12.06Z"></path></g><rect class="cls-3" width="97.84" height="71.02"></rect></g></g></svg>