<?xml version="1.0" encoding="UTF-8"?>
<svg xmlns="http://www.w3.org/2000/svg" xmlns:xlink="http://www.w3.org/1999/xlink" id="Ebene_1" data-name="Ebene 1" viewBox="0 0 282.97 74.63">
  <defs>
    <style>.cls-1{fill:none;}.cls-2{clip-path:url(#clip-path);}.cls-3{fill:#009e3d;}.cls-4{opacity:0.93;}.cls-5{clip-path:url(#clip-path-3);}</style>
    <clipPath id="clip-path" transform="translate(-279.65 -260.74)">
      <rect class="cls-1" width="841.89" height="595.28"></rect>
    </clipPath>
    <clipPath id="clip-path-3" transform="translate(-279.65 -260.74)">
      <rect class="cls-1" x="279.65" y="260.74" width="65.58" height="74.63"></rect>
    </clipPath>
  </defs>
  <title>MOHN_Logo_0</title>
  <g class="cls-2">
    <polygon class="cls-3" points="203.47 57.38 203.47 43.9 221.35 43.9 221.35 57.38 232.56 57.38 232.56 19.77 221.35 19.77 221.35 32.58 203.47 32.58 203.47 19.77 192.26 19.77 192.26 57.38 203.47 57.38"></polygon>
    <g class="cls-2">
      <path class="cls-3" d="M461.71,284.39c-3.93-3.29-9.9-5-17.73-5s-13.79,1.67-17.72,5-5.83,8.3-5.83,15,2,11.79,5.82,15,9.9,4.94,17.73,4.94,13.8-1.66,17.74-4.94,5.82-8.27,5.82-15-2-11.79-5.83-15m-9,23.08c-2,1.78-4.95,2.68-8.67,2.68s-6.64-.9-8.66-2.68-3.11-4.5-3.11-8,1-6.15,3.11-8,4.93-2.67,8.66-2.67,6.64.89,8.67,2.67,3.15,4.51,3.15,8-1.06,6.15-3.15,8" transform="translate(-279.65 -260.74)"></path>
      <polygon class="cls-3" points="271.63 19.77 271.63 40.72 249.85 19.76 239.2 19.76 239.2 57.36 250.21 57.36 250.21 36.41 271.99 57.38 282.96 57.38 282.96 19.77 271.63 19.77"></polygon>
      <path class="cls-3" d="M404.11,280.54l-15.24,24-15.24-24H361.58v37.6h11.08V299.8s10,15.83,11.28,17.85h9.46c1.35-2,11.68-17.85,11.68-17.85v18.35h11.07V280.54Z" transform="translate(-279.65 -260.74)"></path>
      <g class="cls-4">
        <g class="cls-5">
          <path class="cls-3" d="M312.44,260.74l-32.79,17.69v38l32.79,18.93,32.79-18.93v-38Zm31.05,54.69-31.05,17.93-31.05-17.93v-36l31.05-16.76,31.05,16.76Z" transform="translate(-279.65 -260.74)"></path>
        </g>
      </g>
      <path class="cls-3" d="M312.44,268.87l-25.63,13.84v29.64l25.63,14.79,25.62-14.79V282.71Zm23.7,42.36-7.49,4.2v-19.6l-16.23,8.7-16.22-8.7v19.6l-7.49-4.2V283.61l23.71,13.05,23.72-13.05Z" transform="translate(-279.65 -260.74)"></path>
    </g>
  </g>
</svg>
